<svg width="14" height="14" viewBox="0 0 14 14" fill="none" xmlns="http://www.w3.org/2000/svg">
<path d="M9.91663 3.50002H12.8333V4.66669H11.6666V12.25C11.6666 12.5722 11.4055 12.8334 11.0833 12.8334H2.91663C2.59446 12.8334 2.33329 12.5722 2.33329 12.25V4.66669H1.16663V3.50002H4.08329V1.75002C4.08329 1.42786 4.34446 1.16669 4.66663 1.16669H9.33329C9.65547 1.16669 9.91663 1.42786 9.91663 1.75002V3.50002ZM10.5 4.66669H3.49996V11.6667H10.5V4.66669ZM5.24996 6.41669H6.41663V9.91669H5.24996V6.41669ZM7.58329 6.41669H8.74996V9.91669H7.58329V6.41669ZM5.24996 2.33335V3.50002H8.74996V2.33335H5.24996Z" fill="white"/>
</svg>
