<?xml version="1.0" standalone="no"?>
<!DOCTYPE svg PUBLIC "-//W3C//DTD SVG 20010904//EN"
 "http://www.w3.org/TR/2001/REC-SVG-20010904/DTD/svg10.dtd">
<svg version="1.0" xmlns="http://www.w3.org/2000/svg"
 width="18" height="18" viewBox="0 0 512.000000 512.000000"
 preserveAspectRatio="xMidYMid meet">

<g transform="translate(0.000000,512.000000) scale(0.100000,-0.100000)"
fill="#000000" stroke="none" opacity="0.5">
<path d="M2672 5100 c-162 -43 -89 25 -1373 -1258 -912 -910 -1185 -1189
-1213 -1236 -58 -97 -81 -183 -81 -306 0 -123 23 -209 81 -306 28 -47 248
-273 953 -976 870 -869 920 -917 988 -951 189 -93 403 -86 579 19 48 28 325
300 1236 1213 1142 1142 1177 1178 1212 1251 21 42 44 113 53 160 l17 85 -63
825 c-34 454 -69 857 -78 895 -25 117 -76 209 -168 300 -95 96 -192 149 -312
171 -81 15 -1603 134 -1702 133 -31 0 -89 -9 -129 -19z m958 -361 c904 -69
877 -65 960 -149 84 -83 80 -56 150 -965 34 -445 59 -827 56 -848 -4 -21 -17
-60 -31 -85 -17 -34 -337 -360 -1172 -1194 l-1148 -1147 -59 -16 c-71 -21
-143 -16 -207 14 -33 16 -270 247 -936 913 l-892 893 -16 59 c-21 71 -16 148
14 209 14 29 366 387 1173 1194 1085 1083 1156 1152 1203 1167 28 8 61 15 75
16 14 0 387 -27 830 -61z"/>
<path d="M3668 4348 c-138 -17 -263 -82 -365 -191 -71 -76 -117 -161 -143
-263 -113 -440 294 -847 734 -734 116 29 190 73 281 165 122 122 175 248 177
417 0 111 -14 172 -65 278 -111 228 -359 360 -619 328z m172 -330 c158 -48
239 -242 165 -394 -66 -136 -218 -196 -359 -144 -185 70 -245 306 -115 454 81
92 187 120 309 84z"/>
</g>
</svg>
